<svg xmlns="http://www.w3.org/2000/svg" width="206" height="205" viewBox="0 0 206 205" version="1.1"><path d="M 42.212 43.250 L 42.500 52.500 47.750 52.802 L 53 53.105 53 43.552 L 53 34 47.462 34 L 41.925 34 42.212 43.250 M 57 47.878 C 57 58.993, 57.299 62.003, 58.500 63 C 60.675 64.805, 60.408 69.711, 58.066 70.965 C 55.353 72.417, 53.398 72.255, 51.571 70.429 C 49.589 68.446, 49.559 65.584, 51.500 63.643 C 52.325 62.818, 53 60.761, 53 59.071 L 53 56 46 56 L 39 56 39 61.333 C 39 66.352, 39.235 66.854, 43 69.880 C 46.864 72.985, 47 73.298, 47 79.088 C 47 83.670, 47.511 85.772, 49.171 88.017 C 51.006 90.500, 51.164 91.344, 50.192 93.477 C 48.840 96.446, 44.111 96.968, 41.571 94.429 C 39.490 92.347, 39.590 90.791, 42 87.727 C 44.680 84.320, 44.781 76.017, 42.171 73.655 C 41.165 72.745, 40.040 72, 39.671 72 C 39.302 72, 39 78.975, 39 87.500 L 39 103 51.378 103 C 61.160 103, 64.016 102.685, 65 101.500 C 65.685 100.675, 67.749 100, 69.587 100 C 75.503 100, 76.761 107, 71.224 109.105 C 69.135 109.899, 68.073 109.690, 65.850 108.048 C 63.420 106.251, 61.606 106, 51.040 106 L 39 106 39 126.500 L 39 147 42 147 C 44.455 147, 45 146.586, 45 144.722 C 45 143.469, 44.100 141.674, 43 140.732 C 41.900 139.790, 41 138.340, 41 137.510 C 41 135.564, 44.557 132, 46.500 132 C 48.438 132, 52 135.562, 52 137.500 C 52 138.325, 51.100 139.900, 50 141 C 48.213 142.787, 48 144.333, 48 155.500 L 48 168 50.500 168 L 53 168 53 156.687 C 53 145.423, 53.013 145.362, 56 142.500 C 60.176 138.499, 60.176 133.379, 56 129.658 C 54.263 128.110, 53 125.987, 53 124.615 C 53 123.311, 52.325 121.685, 51.500 121 C 49.698 119.505, 49.537 115.863, 51.200 114.200 C 52.747 112.653, 57.253 112.653, 58.800 114.200 C 60.463 115.863, 60.302 119.505, 58.500 121 C 56.252 122.866, 56.689 126.359, 59.500 129 C 61.538 130.914, 62 132.299, 62 136.486 C 62 141.035, 61.656 141.878, 59 143.842 L 56 146.060 56 157.030 L 56 168 59 168 L 62 168 62 159.687 C 62 151.756, 62.138 151.242, 65 148.500 C 68.508 145.139, 68.763 142.785, 66 139.273 C 63.397 135.963, 63.468 133.486, 66.223 131.557 C 69.272 129.421, 70.685 129.594, 73.545 132.455 L 76 134.909 76 126.438 L 76 117.967 102.750 118.234 L 129.500 118.500 129.791 126.209 C 130.081 133.863, 130.096 133.904, 132.041 131.959 C 134.494 129.506, 137.200 129.458, 139.345 131.829 C 141.422 134.123, 141.453 136.404, 139.435 138.422 C 136.569 141.288, 136.742 144.637, 139.944 148.283 C 142.619 151.330, 142.939 152.439, 143.205 159.581 C 143.496 167.393, 143.537 167.504, 146.250 167.816 L 149 168.133 149 157.135 L 149 146.136 146 144 C 143.261 142.050, 143 141.362, 143 136.106 C 143 131.258, 143.395 129.978, 145.500 128 C 148.498 125.184, 148.621 123.605, 146.097 120.396 C 143.746 117.408, 144.363 114.611, 147.708 113.087 C 153.191 110.589, 157.495 117.432, 153 121.500 C 151.900 122.495, 151 124.287, 151 125.481 C 151 126.675, 149.875 128.708, 148.500 130 C 144.850 133.429, 145.062 138.727, 149 142.500 C 151.989 145.364, 152 145.415, 152 156.757 C 152 167.709, 152.078 168.127, 154.073 167.820 C 156.035 167.517, 156.155 166.822, 156.297 154.903 C 156.426 144.180, 156.192 142.049, 154.724 140.581 C 152.455 138.312, 152.541 135.725, 154.960 133.536 C 157.393 131.334, 161.467 132.135, 163.071 135.132 C 163.991 136.852, 163.813 137.762, 162.099 140.079 C 159.092 144.148, 159.373 146, 163 146 L 166 146 166 126 L 166 106 153.122 106 C 142.896 106, 139.989 106.309, 139 107.500 C 137.415 109.410, 132.613 109.443, 131.046 107.555 C 129.188 105.316, 130.219 101.724, 133.198 100.057 C 135.701 98.657, 136.115 98.709, 138.908 100.774 C 141.629 102.785, 143.080 103, 153.960 103 L 166 103 166 86.826 L 166 70.651 163.500 73 C 161.388 74.984, 161 76.253, 161 81.174 C 161 84.378, 161.434 87, 161.965 87 C 162.495 87, 163.427 87.930, 164.036 89.067 C 166.563 93.789, 159.442 98.299, 155.571 94.429 C 153.435 92.292, 153.597 89.675, 156 87.500 C 157.586 86.064, 158 84.420, 158 79.548 C 158 73.700, 158.191 73.219, 162 69.500 C 165.621 65.964, 166 65.116, 166.002 60.547 L 166.005 55.500 158.502 55.829 C 151.322 56.144, 151 56.262, 151 58.579 C 151 59.911, 151.928 61.928, 153.061 63.061 C 155.715 65.715, 155.209 69.037, 151.865 70.907 C 149.504 72.228, 148.959 72.203, 146.615 70.667 C 143.496 68.624, 143.247 65.625, 146 63.268 C 147.820 61.709, 148 60.318, 148 47.778 L 148 34 144 34 L 140 34 140 57.500 C 140 79.862, 140.099 81.099, 142.051 83.051 C 143.488 84.488, 143.897 85.760, 143.416 87.301 C 142.499 90.243, 141.085 91.072, 137.518 90.761 C 133.592 90.418, 131.742 86.048, 134.318 83.202 C 135.794 81.570, 136 78.450, 136 57.671 L 136 34 133 34 L 130 34 130 59 L 130 84 124.345 84 C 118.930 84, 118.760 84.078, 120.345 85.829 C 121.255 86.835, 122 89.310, 122 91.329 C 122 93.348, 122.460 95, 123.021 95 C 123.583 95, 124.555 96.123, 125.180 97.496 C 126.762 100.969, 123.866 104.221, 119.569 103.799 C 115.212 103.370, 113.721 98.990, 116.812 95.700 C 119.747 92.576, 119.568 89.608, 116.260 86.540 C 112.781 83.314, 106 82.876, 106 85.878 C 106 86.910, 106.675 88.315, 107.500 89 C 109.675 90.805, 109.408 95.711, 107.066 96.965 C 104.353 98.417, 102.398 98.255, 100.571 96.429 C 98.576 94.434, 98.533 90.117, 100.500 89.362 C 101.325 89.045, 102 87.709, 102 86.393 C 102 84.286, 101.543 84, 98.174 84 C 90.616 84, 87.026 92.857, 92.500 98 C 93.916 99.331, 95 101.469, 95 102.934 C 95 104.436, 95.838 106.042, 97 106.768 C 101.829 109.784, 96.831 117.611, 91.598 115.227 C 88.410 113.774, 87.776 110.554, 90.097 107.604 C 92.621 104.395, 92.498 102.816, 89.500 100 C 87.447 98.071, 87 96.710, 87 92.385 C 87 89.488, 87.450 86.840, 88 86.500 C 90.526 84.939, 88.461 84, 82.500 84 L 76 84 76 59 L 76 34 72 34 L 68 34 68 57.778 C 68 80.318, 68.104 81.645, 70 83.268 C 72.535 85.439, 72.535 87.465, 70 90 C 67.593 92.407, 66.160 92.501, 63.223 90.443 C 60.464 88.511, 60.377 85.623, 63 83 C 64.887 81.113, 65 79.667, 65 57.500 L 65 34 61 34 L 57 34 57 47.878 M 151 43 L 151 52 156.500 52 L 162 52 162 43 L 162 34 156.500 34 L 151 34 151 43 M 52.389 65.430 C 51.393 68.025, 52.788 70.169, 55.246 69.820 C 56.898 69.585, 57.500 68.833, 57.500 67 C 57.500 65.167, 56.898 64.415, 55.246 64.180 C 53.893 63.988, 52.750 64.488, 52.389 65.430 M 147.179 65.284 C 145.364 67.472, 148.273 70.874, 150.691 69.391 C 153.194 67.856, 153.018 64.574, 150.412 64.202 C 149.264 64.038, 147.809 64.525, 147.179 65.284 M 136.435 84.424 C 134.029 86.183, 135.281 89, 138.469 89 C 140.472 89, 141 88.501, 141 86.607 C 141 83.708, 138.832 82.671, 136.435 84.424 M 63.306 85.645 C 62.560 87.589, 65.516 90.123, 67.597 89.324 C 68.369 89.028, 69 87.709, 69 86.393 C 69 84.499, 68.472 84, 66.469 84 C 65.042 84, 63.662 84.718, 63.306 85.645 M 43.612 89.531 C 42.772 90.371, 42.339 91.720, 42.649 92.529 C 43.403 94.493, 47.628 94.412, 48.393 92.418 C 49.238 90.216, 49.229 90.193, 47.069 89.037 C 45.619 88.261, 44.759 88.384, 43.612 89.531 M 157.046 89.444 C 155.231 91.632, 156.525 94.206, 159.246 93.820 C 160.894 93.586, 161.500 92.832, 161.500 91.014 C 161.500 88.096, 158.920 87.187, 157.046 89.444 M 101.709 90.624 C 100.266 92.068, 101.065 94.886, 103.101 95.532 C 105.629 96.335, 107.318 94.898, 106.834 92.356 C 106.476 90.482, 103.019 89.314, 101.709 90.624 M 118.435 97.424 C 116.029 99.183, 117.281 102, 120.469 102 C 122.472 102, 123 101.501, 123 99.607 C 123 96.708, 120.832 95.671, 118.435 97.424 M 133.435 102.424 C 131.029 104.183, 132.281 107, 135.469 107 C 137.472 107, 138 106.501, 138 104.607 C 138 101.708, 135.832 100.671, 133.435 102.424 M 66.380 103.452 C 65.559 105.591, 66.799 107, 69.500 107 C 72.268 107, 73.258 105.835, 72.396 103.590 C 71.632 101.600, 67.130 101.496, 66.380 103.452 M 91.667 108.667 C 90.400 109.933, 91.006 112.788, 92.678 113.430 C 94.802 114.245, 97.471 111.669, 96.668 109.578 C 96.060 107.994, 92.913 107.420, 91.667 108.667 M 148.692 114.752 C 147.497 115.028, 146.988 115.904, 147.192 117.335 C 147.576 120.031, 151.713 120.911, 152.641 118.493 C 153.435 116.424, 151.087 114.200, 148.692 114.752 M 52.667 115.667 C 51.491 116.842, 51.954 119.768, 53.403 120.324 C 55.484 121.123, 58.440 118.589, 57.694 116.645 C 57.065 115.007, 53.935 114.398, 52.667 115.667 M 67.476 133.394 C 65.077 135.148, 66.245 138, 69.362 138 C 70.695 138, 72.059 137.288, 72.393 136.418 C 73.236 134.221, 73.224 134.190, 71.138 133.074 C 69.820 132.369, 68.750 132.462, 67.476 133.394 M 133.362 133.500 C 132.484 135.787, 133.713 138, 135.862 138 C 138.227 138, 139.441 135.237, 137.895 133.373 C 136.390 131.560, 134.081 131.625, 133.362 133.500 M 44.584 135.315 C 42.315 136.974, 43.553 140, 46.500 140 C 47.757 140, 49.059 139.288, 49.393 138.418 C 50.236 136.221, 50.224 136.190, 48.138 135.074 C 46.836 134.377, 45.767 134.450, 44.584 135.315 M 156.141 135.330 C 154.442 137.378, 155.836 140.166, 158.377 139.803 C 159.891 139.587, 160.500 138.786, 160.500 137.014 C 160.500 134.161, 157.934 133.170, 156.141 135.330 M 73.250 138.603 C 71.911 140.130, 71 142.478, 71 144.398 C 71 146.679, 70.120 148.469, 68 150.500 C 65.202 153.180, 65 153.867, 65 160.687 L 65 168 70.500 168 L 76 168 76 152 C 76 143.200, 75.888 136.008, 75.750 136.018 C 75.612 136.028, 74.487 137.191, 73.250 138.603 M 130 152.345 L 130 168 135 168 L 140 168 140 160.223 C 140 152.833, 139.851 152.314, 137 149.813 C 134.760 147.847, 134 146.310, 134 143.745 C 134 141.580, 133.261 139.641, 132 138.500 C 130.008 136.697, 130 136.753, 130 152.345 M 39 159 L 39 168 42 168 L 45 168 45 159 L 45 150 42 150 L 39 150 39 159 M 160 159 L 160 168 163 168 L 166 168 166 159 L 166 150 163 150 L 160 150 160 159" stroke="none" fill="#172660" fill-rule="evenodd"/></svg>