<?xml version="1.0" standalone="no"?>
<svg xmlns:xlink="http://www.w3.org/1999/xlink" id="wave" style="transform:rotate(0deg); transition: 0.3s" viewBox="0 0 1440 240" version="1.1" xmlns="http://www.w3.org/2000/svg"><defs><linearGradient id="sw-gradient-0" x1="0" x2="0" y1="1" y2="0"><stop stop-color="rgba(255, 255, 255, 1)" offset="0%"/><stop stop-color="rgba(255, 255, 255, 1)" offset="100%"/></linearGradient></defs><path style="transform:translate(0, 0px); opacity:1" fill="url(#sw-gradient-0)" d="M0,192L40,176C80,160,160,128,240,132C320,136,400,176,480,184C560,192,640,168,720,140C800,112,880,80,960,60C1040,40,1120,32,1200,24C1280,16,1360,8,1440,12C1520,16,1600,32,1680,68C1760,104,1840,160,1920,172C2000,184,2080,152,2160,132C2240,112,2320,104,2400,104C2480,104,2560,112,2640,100C2720,88,2800,56,2880,68C2960,80,3040,136,3120,156C3200,176,3280,160,3360,144C3440,128,3520,112,3600,96C3680,80,3760,64,3840,80C3920,96,4000,144,4080,152C4160,160,4240,128,4320,96C4400,64,4480,32,4560,32C4640,32,4720,64,4800,64C4880,64,4960,32,5040,48C5120,64,5200,128,5280,132C5360,136,5440,80,5520,60C5600,40,5680,56,5720,64L5760,72L5760,240L5720,240C5680,240,5600,240,5520,240C5440,240,5360,240,5280,240C5200,240,5120,240,5040,240C4960,240,4880,240,4800,240C4720,240,4640,240,4560,240C4480,240,4400,240,4320,240C4240,240,4160,240,4080,240C4000,240,3920,240,3840,240C3760,240,3680,240,3600,240C3520,240,3440,240,3360,240C3280,240,3200,240,3120,240C3040,240,2960,240,2880,240C2800,240,2720,240,2640,240C2560,240,2480,240,2400,240C2320,240,2240,240,2160,240C2080,240,2000,240,1920,240C1840,240,1760,240,1680,240C1600,240,1520,240,1440,240C1360,240,1280,240,1200,240C1120,240,1040,240,960,240C880,240,800,240,720,240C640,240,560,240,480,240C400,240,320,240,240,240C160,240,80,240,40,240L0,240Z"/></svg>